<svg width="55" height="43" viewBox="0 0 55 43" fill="none" xmlns="http://www.w3.org/2000/svg">
<path d="M14.2802 0L0 43H10.7794L21.0376 10.7085L25.2712 24.2726H18.6115L16.9343 30.3158H27.2903L31.3122 43H42.1567L38.1511 30.3158C40.5996 30.3158 54.4667 30.6612 54.4667 24.2726H35.8715L27.9254 0H14.2802Z" fill="black"/>
<path d="M14.2802 0L0 43H10.7794L21.0376 10.7085L25.2712 24.2726H18.6115L16.9343 30.3158H27.2903L31.3122 43H42.1567L38.1511 30.3158C40.5996 30.3158 54.4667 30.6612 54.4667 24.2726H35.8715L27.9254 0H14.2802Z" fill="black"/>
<path d="M38.0081 30.0457C43.2307 30.3422 54.6612 29.568 54.4641 24.0662H35.7089L27.7108 0H17.2L27.021 30.0787H34.3294L38.0081 30.0457Z" fill="black"/>
<path d="M38.0081 30.0457C43.2307 30.3422 54.6612 29.568 54.4641 24.0662H35.7089L27.7108 0H17.2L27.021 30.0787H34.3294L38.0081 30.0457Z" fill="url(#paint0_linear_101_7)"/>
<defs>
<linearGradient id="paint0_linear_101_7" x1="35.8333" y1="0" x2="35.8333" y2="30.1" gradientUnits="userSpaceOnUse">
<stop/>
<stop offset="1"/>
</linearGradient>
</defs>
</svg>
